HIERARCHY
ROOT SpineBase
{
  OFFSET 0.000000 0.000000 0.000000
  CHANNELS 6 Xposition Yposition Zposition Zrotation Xrotation Yrotation
  JOINT SpineMid
  {
    OFFSET 0.000000 28.657188 0.000000
    CHANNELS 3 Zrotation Xrotation Yrotation
    JOINT SpineShoulder
    {
      OFFSET 0.027613 21.315269 -0.732332
      CHANNELS 3 Zrotation Xrotation Yrotation
      JOINT Neck
      {
        OFFSET 0.003018 7.060859 -0.559441
        CHANNELS 3 Zrotation Xrotation Yrotation
        JOINT Head
        {
          OFFSET -2.076940 11.579859 1.128178
          CHANNELS 3 Zrotation Xrotation Yrotation
          End Site
          {
            OFFSET 0 0 0
          }
        }
      }
      JOINT ShoulderLeft
      {
        OFFSET -16.164705 -2.086401 2.958269
        CHANNELS 3 Zrotation Xrotation Yrotation
        JOINT ElbowLeft
        {
          OFFSET -5.916139 -24.910372 2.233321
          CHANNELS 3 Zrotation Xrotation Yrotation
          JOINT WristLeft
          {
            OFFSET -3.154515 -18.953399 -4.822572
            CHANNELS 3 Zrotation Xrotation Yrotation
            JOINT HandLeft
            {
              OFFSET 0.471406 -7.702667 -0.626144
              CHANNELS 3 Zrotation Xrotation Yrotation
              JOINT HandTipLeft
              {
                OFFSET 0.185515 -6.457874 -2.172082
                CHANNELS 3 Zrotation Xrotation Yrotation
                End Site
                {
                  OFFSET 0 0 0
                }
              }
              JOINT ThumbLeft
              {
                OFFSET -2.580354 -0.323914 -1.631764
                CHANNELS 3 Zrotation Xrotation Yrotation
                End Site
                {
                  OFFSET 0 0 0
                }
              }
            }
          }
        }
      }
      JOINT ShoulderRight
      {
        OFFSET 14.858275 -2.392588 -6.896910
        CHANNELS 3 Zrotation Xrotation Yrotation
        JOINT ElbowRight
        {
          OFFSET 6.265067 -24.793304 -4.835442
          CHANNELS 3 Zrotation Xrotation Yrotation
          JOINT WristRight
          {
            OFFSET 0.064037 -19.101573 -6.111632
            CHANNELS 3 Zrotation Xrotation Yrotation
            JOINT HandRight
            {
              OFFSET -2.051569 -8.341835 -0.263298
              CHANNELS 3 Zrotation Xrotation Yrotation
              JOINT HandTipRight
              {
                OFFSET -0.457460 -6.902406 -2.189127
                CHANNELS 3 Zrotation Xrotation Yrotation
                End Site
                {
                  OFFSET 0 0 0
                }
              }
              JOINT ThumbRight
              {
                OFFSET 2.255572 1.218506 -2.103706
                CHANNELS 3 Zrotation Xrotation Yrotation
                End Site
                {
                  OFFSET 0 0 0
                }
              }
            }
          }
        }
      }
    }
  }
  JOINT HipLeft
  {
    OFFSET -7.209629 0.373370 -0.899622
    CHANNELS 3 Zrotation Xrotation Yrotation
    JOINT KneeLeft
    {
      OFFSET -7.356131 -28.614377 2.195176
      CHANNELS 3 Zrotation Xrotation Yrotation
      JOINT AnkleLeft
      {
        OFFSET -1.089400 -38.657235 5.066977
        CHANNELS 3 Zrotation Xrotation Yrotation
        JOINT FootLeft
        {
          OFFSET -2.873991 -3.088138 -12.685240
          CHANNELS 3 Zrotation Xrotation Yrotation
          End Site
          {
            OFFSET 0 0 0
          }
        }
      }
    }
  }
  JOINT HipRight
  {
    OFFSET 6.840674 1.297769 -5.891967
    CHANNELS 3 Zrotation Xrotation Yrotation
    JOINT KneeRight
    {
      OFFSET 3.707127 -30.484010 2.822815
      CHANNELS 3 Zrotation Xrotation Yrotation
      JOINT AnkleRight
      {
        OFFSET -0.059320 -34.589275 6.096531
        CHANNELS 3 Zrotation Xrotation Yrotation
        JOINT FootRight
        {
          OFFSET -3.817796 -1.974442 -14.362058
          CHANNELS 3 Zrotation Xrotation Yrotation
          End Site
          {
            OFFSET 0 0 0
          }
        }
      }
    }
  }
}
MOTION
Frames: 9
Frame Time: 0.033333
21.711628 71.292867 368.199841 -0.000000 0.000000 19.561109 0.000000 0.000000 -19.561109 -0.000000 0.000000 0.000000 -0.000000 0.000000 0.000000 0.000000 0.000000 0.000000 -0.000000 0.000000 0.000000 -0.000000 0.000000 0.000000 -0.000000 0.000000 0.000000 -0.000000 0.000000 0.000000 0.000000 0.000000 0.000000 0.000000 0.000000 0.000000 -0.000000 0.000000 0.000000 -0.000000 0.000000 0.000000 -0.000000 0.000000 0.000000 -0.000000 0.000000 0.000000 0.000000 0.000000 0.000000 0.000000 0.000000 0.000000 0.000000 0.000000 -19.561109 -0.000000 0.000000 0.000000 -0.000000 0.000000 0.000000 0.000000 0.000000 0.000000 0.000000 0.000000 -19.561109 -0.000000 0.000000 0.000000 -0.000000 0.000000 0.000000 0.000000 0.000000 0.000000
21.756719 71.257978 368.189235 -0.093589 -0.029860 19.539618 0.098186 -0.003161 -19.539640 -0.000000 0.000000 0.000000 -0.000000 0.000000 0.000000 0.000000 0.000000 0.000000 -0.000000 0.000000 0.000000 -0.000000 0.000000 0.000000 1.032874 1.233427 -0.019565 -0.802621 -2.620216 -0.112578 0.000000 0.000000 0.000000 0.000000 0.000000 0.000000 -0.000000 0.000000 0.000000 -0.000000 0.000000 0.000000 -1.343734 1.122279 -0.219741 1.348284 -1.116808 0.246044 0.000000 0.000000 0.000000 0.000000 0.000000 0.000000 0.098186 -0.003161 -19.539640 -0.000000 0.000000 0.000000 -0.000000 0.000000 0.000000 0.000000 0.000000 0.000000 0.098186 -0.003161 -19.539640 -0.000000 0.000000 0.000000 1.153238 -3.977159 -0.900444 0.000000 0.000000 0.000000
21.800538 71.233172 368.171946 -0.185594 -0.052205 19.535961 0.192367 -0.012863 -19.536024 -0.000000 0.000000 0.000000 -0.013567 0.972216 0.175674 0.000000 0.000000 0.000000 -0.000000 0.000000 0.000000 -0.000000 0.000000 0.000000 1.916464 2.373339 -0.050099 -1.502017 -4.842738 -0.214934 0.000000 0.000000 0.000000 0.000000 0.000000 0.000000 -0.000000 0.000000 0.000000 -1.154906 0.435894 0.374939 -1.394880 1.652126 -0.767343 2.390999 -2.885562 0.582231 0.000000 0.000000 0.000000 0.000000 0.000000 0.000000 0.192367 -0.012863 -19.536024 -0.000000 0.000000 0.000000 -0.000000 0.000000 0.000000 0.000000 0.000000 0.000000 -0.690692 -0.348104 -19.679861 0.718622 0.613001 0.137211 2.279111 -8.094363 -1.659679 0.000000 0.000000 0.000000
21.843083 71.218450 368.147974 -0.276030 -0.067042 19.550069 0.282551 -0.029192 -19.550158 -0.000000 0.000000 0.000000 -0.009926 1.333679 0.240030 0.000000 0.000000 0.000000 -0.000000 0.000000 0.000000 -0.000000 0.000000 0.000000 2.637451 3.405460 -0.084053 -2.083224 -6.659752 -0.306902 0.000000 0.000000 0.000000 0.000000 0.000000 0.000000 -0.000000 0.000000 0.000000 -1.719003 0.614463 0.560385 -1.908792 2.269431 -1.075081 3.087133 -3.969947 0.908706 0.000000 0.000000 0.000000 0.000000 0.000000 0.000000 1.247294 -0.546731 -19.419592 -1.809396 -0.197392 -0.209208 0.726142 0.367300 0.082551 0.000000 0.000000 0.000000 -0.937096 -0.459725 -19.747507 0.983082 1.687273 0.180986 3.382509 -13.063456 -2.173449 0.000000 0.000000 0.000000
21.884354 71.213811 368.117319 -0.364915 -0.074376 19.581899 0.368737 -0.052229 -19.581967 -0.000000 0.000000 0.000000 0.001130 1.609640 0.288199 0.000000 0.000000 0.000000 -0.000000 0.000000 0.000000 -0.000000 0.000000 0.000000 3.185494 4.318047 -0.114201 -2.534523 -8.063246 -0.386904 0.000000 0.000000 0.000000 0.000000 0.000000 0.000000 -0.000000 0.000000 0.000000 -2.264116 0.763392 0.740613 -2.312087 2.744844 -1.335744 3.440964 -4.819349 1.238969 0.000000 0.000000 0.000000 0.000000 0.000000 0.000000 1.543529 -0.774763 -19.395685 -2.273482 -0.116448 -0.282459 0.923403 0.412239 0.106172 0.000000 0.000000 0.000000 -1.119087 -0.530278 -19.820053 1.285314 1.919189 0.226410 4.321169 -17.056174 -2.502392 0.000000 0.000000 0.000000
21.924353 71.219255 368.079980 -0.452263 -0.074211 19.631433 0.450906 -0.082050 -19.631403 -0.000000 0.000000 0.000000 0.019802 1.799037 0.319958 0.000000 0.000000 0.000000 -0.000000 0.000000 0.000000 -0.000000 0.000000 0.000000 3.553475 5.101988 -0.134129 -2.847783 -9.044571 -0.452448 0.000000 0.000000 0.000000 0.000000 0.000000 0.000000 -0.000000 0.000000 0.000000 -2.783208 0.881123 0.912843 -2.613571 3.076977 -1.551377 3.446135 -5.436694 1.565362 0.000000 0.000000 0.000000 0.000000 0.000000 0.000000 1.785268 -1.028766 -19.382857 -2.670040 0.040630 -0.356572 1.094514 0.416149 0.127860 0.000000 0.000000 0.000000 -1.237265 -0.559916 -19.897139 1.576128 1.988859 0.265306 5.123009 -20.558581 -2.585063 0.000000 0.000000 0.000000
21.957460 71.245531 368.048584 -0.555077 -0.085043 19.663009 0.551325 -0.106693 -19.662908 -0.000000 0.000000 0.000000 -0.005370 1.748940 0.313851 0.000000 0.000000 0.000000 -0.000000 0.000000 0.000000 -0.000000 0.000000 0.000000 3.531056 5.688726 -0.113510 -2.397532 -10.376416 -0.604408 0.000000 0.000000 0.000000 0.000000 0.000000 0.000000 -0.000000 0.000000 0.000000 -3.266653 1.285510 1.082616 -2.892388 2.017459 -1.568575 3.146348 -4.273096 1.621516 0.000000 0.000000 0.000000 0.000000 0.000000 0.000000 1.950803 -1.393198 -19.318696 -3.020274 0.519458 -0.460335 1.271881 0.241557 0.157322 0.000000 0.000000 0.000000 -1.455823 -0.683819 -19.982303 1.945185 2.145484 0.324259 6.957493 -27.639297 -2.307767 0.000000 0.000000 0.000000
21.995957 71.275661 367.993431 -0.625237 -0.061948 19.753538 0.609382 -0.153011 -19.753062 -0.000000 0.000000 0.000000 -0.090912 1.723367 0.318925 0.000000 0.000000 0.000000 -0.000000 0.000000 0.000000 -0.000000 0.000000 0.000000 3.565665 6.456886 -0.094937 -2.692932 -9.347862 -0.571676 0.000000 0.000000 0.000000 0.000000 0.000000 0.000000 -0.000000 0.000000 0.000000 -3.797508 1.223840 1.255948 -3.162336 2.451780 -1.760731 2.410379 -6.195207 2.141671 0.000000 0.000000 0.000000 0.000000 0.000000 0.000000 2.114627 -1.773483 -19.314102 -3.474366 0.797912 -0.563555 1.515019 0.248029 0.188446 0.000000 0.000000 0.000000 -1.483178 -0.626707 -20.075410 2.430216 1.901597 0.383026 7.721737 -31.372573 -1.838986 0.000000 0.000000 0.000000
22.027540 71.307796 367.927626 -0.694564 -0.028050 19.850932 0.662820 -0.209469 -19.849890 -0.000000 0.000000 0.000000 -0.102205 1.718190 0.319268 0.000000 0.000000 0.000000 -0.000000 0.000000 0.000000 -0.000000 0.000000 0.000000 3.511795 6.564282 -0.084287 -1.683039 -8.059157 -0.746821 0.000000 0.000000 0.000000 0.000000 0.000000 0.000000 -0.000000 0.000000 0.000000 -4.162986 1.177319 1.374872 -3.167493 2.463818 -1.846092 1.157663 -5.638911 2.498538 0.000000 0.000000 0.000000 0.000000 0.000000 0.000000 2.341455 -2.169051 -19.313276 -3.785539 1.109747 -0.641672 1.550268 0.201112 0.194944 0.000000 0.000000 0.000000 -1.201516 -0.315736 -20.106949 2.561288 1.029758 0.373401 7.538406 -30.961594 -1.421934 0.000000 0.000000 0.000000
